<?xml version="1.0" standalone="no"?>
<svg xmlns:xlink="http://www.w3.org/1999/xlink" id="wave" style="transform:rotate(180deg); transition: 0.3s" viewBox="0 0 1440 490" version="1.1" xmlns="http://www.w3.org/2000/svg"><defs><linearGradient id="sw-gradient-0" x1="0" x2="0" y1="1" y2="0"><stop stop-color="rgba(243, 106, 62, 1)" offset="0%"/><stop stop-color="rgba(25.415, 20.391, 14.874, 1)" offset="100%"/></linearGradient></defs><path style="transform:translate(0, 0px); opacity:1" fill="url(#sw-gradient-0)" d="M0,343L26.7,318.5C53.3,294,107,245,160,212.3C213.3,180,267,163,320,163.3C373.3,163,427,180,480,155.2C533.3,131,587,65,640,73.5C693.3,82,747,163,800,163.3C853.3,163,907,82,960,57.2C1013.3,33,1067,65,1120,98C1173.3,131,1227,163,1280,179.7C1333.3,196,1387,196,1440,212.3C1493.3,229,1547,261,1600,277.7C1653.3,294,1707,294,1760,261.3C1813.3,229,1867,163,1920,171.5C1973.3,180,2027,261,2080,302.2C2133.3,343,2187,343,2240,318.5C2293.3,294,2347,245,2400,253.2C2453.3,261,2507,327,2560,310.3C2613.3,294,2667,196,2720,204.2C2773.3,212,2827,327,2880,375.7C2933.3,425,2987,408,3040,392C3093.3,376,3147,359,3200,351.2C3253.3,343,3307,343,3360,294C3413.3,245,3467,147,3520,130.7C3573.3,114,3627,180,3680,179.7C3733.3,180,3787,114,3813,81.7L3840,49L3840,490L3813.3,490C3786.7,490,3733,490,3680,490C3626.7,490,3573,490,3520,490C3466.7,490,3413,490,3360,490C3306.7,490,3253,490,3200,490C3146.7,490,3093,490,3040,490C2986.7,490,2933,490,2880,490C2826.7,490,2773,490,2720,490C2666.7,490,2613,490,2560,490C2506.7,490,2453,490,2400,490C2346.7,490,2293,490,2240,490C2186.7,490,2133,490,2080,490C2026.7,490,1973,490,1920,490C1866.7,490,1813,490,1760,490C1706.7,490,1653,490,1600,490C1546.7,490,1493,490,1440,490C1386.7,490,1333,490,1280,490C1226.7,490,1173,490,1120,490C1066.7,490,1013,490,960,490C906.7,490,853,490,800,490C746.7,490,693,490,640,490C586.7,490,533,490,480,490C426.7,490,373,490,320,490C266.7,490,213,490,160,490C106.7,490,53,490,27,490L0,490Z"/></svg>